<?xml version="1.0" encoding="utf-8"?>
<!-- Generator: Adobe Illustrator 16.0.0, SVG Export Plug-In . SVG Version: 6.00 Build 0)  -->
<!DOCTYPE svg PUBLIC "-//W3C//DTD SVG 1.1//EN" "http://www.w3.org/Graphics/SVG/1.1/DTD/svg11.dtd">
<svg version="1.1" id="Layer_1" xmlns="http://www.w3.org/2000/svg" xmlns:xlink="http://www.w3.org/1999/xlink" x="0px" y="0px"
	 width="16px" height="16px" viewBox="0 0 16 16" enable-background="new 0 0 16 16" xml:space="preserve">
<path fill="#AC2925" d="M8,1c1.87,0,3.627,0.728,4.95,2.05C14.271,4.373,15,6.13,15,8c0,1.87-0.729,3.628-2.05,4.95
	C11.627,14.271,9.87,15,8,15c-1.87,0-3.627-0.729-4.95-2.05C1.728,11.628,1,9.87,1,8c0-1.87,0.728-3.627,2.05-4.95
	C4.373,1.728,6.13,1,8,1 M8,0C3.582,0,0,3.582,0,8c0,4.419,3.582,8,8,8c4.419,0,8-3.581,8-8C16,3.582,12.419,0,8,0L8,0z M9.414,8
	l2.293-2.292c0.391-0.391,0.391-1.024,0-1.415c-0.391-0.39-1.023-0.39-1.414,0L8,6.586L5.708,4.292c-0.391-0.39-1.024-0.39-1.415,0
	c-0.39,0.391-0.39,1.024,0,1.415L6.586,8l-2.293,2.293c-0.39,0.391-0.39,1.023,0,1.414C4.488,11.902,4.744,12,5,12
	s0.512-0.098,0.708-0.293L8,9.414l2.293,2.293C10.487,11.902,10.744,12,11,12s0.513-0.098,0.707-0.293
	c0.391-0.391,0.391-1.023,0-1.414L9.414,8z"/>
</svg>
