<?xml version="1.0" encoding="utf-8"?>
<!-- Generator: Adobe Illustrator 16.0.0, SVG Export Plug-In . SVG Version: 6.00 Build 0)  -->
<!DOCTYPE svg PUBLIC "-//W3C//DTD SVG 1.1//EN" "http://www.w3.org/Graphics/SVG/1.1/DTD/svg11.dtd">
<svg version="1.1" id="Layer_1" xmlns="http://www.w3.org/2000/svg" xmlns:xlink="http://www.w3.org/1999/xlink" x="0px" y="0px"
	 width="16px" height="16px" viewBox="0 0 16 16" enable-background="new 0 0 16 16" xml:space="preserve">
<path fill="#6D991A" d="M8,1c1.87,0,3.628,0.729,4.95,2.05C14.272,4.373,15,6.131,15,8c0,1.87-0.728,3.628-2.05,4.95S9.87,15,8,15
	c-1.87,0-3.627-0.728-4.949-2.05S1,9.87,1,8c0-1.869,0.728-3.627,2.05-4.949C4.373,1.729,6.13,1,8,1 M8,0.001
	C3.582,0.001,0,3.583,0,8c0,4.419,3.582,8,8,8c4.419,0,8-3.581,8-8C16,3.583,12.419,0.001,8,0.001L8,0.001z M7,11.5
	c0.018,0,0.036,0,0.055-0.001c0.284-0.016,0.548-0.151,0.726-0.374l4-5c0.345-0.431,0.275-1.06-0.156-1.405
	s-1.061-0.275-1.405,0.156L6.917,9.003l-1.21-1.21c-0.391-0.39-1.024-0.39-1.415,0c-0.39,0.391-0.39,1.024,0,1.414l2,2.001
	C6.481,11.396,6.736,11.5,7,11.5L7,11.5z"/>
</svg>
