<?xml version="1.0" encoding="utf-8"?>
<!-- Generator: Adobe Illustrator 16.0.0, SVG Export Plug-In . SVG Version: 6.00 Build 0)  -->
<!DOCTYPE svg PUBLIC "-//W3C//DTD SVG 1.1//EN" "http://www.w3.org/Graphics/SVG/1.1/DTD/svg11.dtd">
<svg version="1.1" id="Layer_1" xmlns="http://www.w3.org/2000/svg" xmlns:xlink="http://www.w3.org/1999/xlink" x="0px" y="0px"
	 width="16px" height="16px" viewBox="0 0 16 16" enable-background="new 0 0 16 16" xml:space="preserve">
<path fill="#D58512" d="M15.788,13.092L9.804,1.124C9.467,0.448,8.775,0.021,8.021,0.021c-0.756,0-1.447,0.427-1.785,1.103
	L0.252,13.092c-0.309,0.619-0.276,1.354,0.087,1.94c0.364,0.589,1.006,0.946,1.697,0.946h11.967c0.69,0,1.334-0.357,1.698-0.946
	C16.063,14.445,16.098,13.711,15.788,13.092z M14.852,14.509c-0.181,0.293-0.502,0.472-0.848,0.472H2.037
	c-0.346,0-0.667-0.179-0.849-0.472c-0.182-0.295-0.198-0.661-0.044-0.972L7.128,1.57c0.169-0.338,0.514-0.551,0.893-0.551
	c0.377,0,0.723,0.213,0.891,0.551l5.984,11.967C15.052,13.848,15.034,14.214,14.852,14.509z M8.021,10.992
	c-0.551,0-0.999-0.447-0.999-0.997V5.008c0-0.551,0.447-0.997,0.999-0.997c0.55,0,0.998,0.446,0.998,0.997v4.987
	C9.019,10.545,8.571,10.992,8.021,10.992L8.021,10.992z M8.021,13.984c0.55,0,0.998-0.447,0.998-0.997
	c0-0.552-0.448-0.999-0.998-0.999c-0.551,0-0.999,0.447-0.999,0.999C7.022,13.537,7.47,13.984,8.021,13.984z"/>
</svg>
