<?xml version="1.0" encoding="utf-8"?>
<!-- Generator: Adobe Illustrator 16.0.0, SVG Export Plug-In . SVG Version: 6.00 Build 0)  -->
<!DOCTYPE svg PUBLIC "-//W3C//DTD SVG 1.1//EN" "http://www.w3.org/Graphics/SVG/1.1/DTD/svg11.dtd">
<svg version="1.1" id="Layer_1" xmlns="http://www.w3.org/2000/svg" xmlns:xlink="http://www.w3.org/1999/xlink" x="0px" y="0px"
	 width="16px" height="16px" viewBox="0 0 16 16" enable-background="new 0 0 16 16" xml:space="preserve">
<path fill="#FFFFFF" d="M15,9H6.5c-0.552,0-1-0.448-1-1s0.448-1,1-1H15c0.552,0,1,0.448,1,1S15.552,9,15,9L15,9z M15,3
	c0.552,0,1-0.448,1-1s-0.448-1-1-1H6.5c-0.552,0-1,0.448-1,1s0.448,1,1,1H15L15,3z M15,15c0.552,0,1-0.448,1-1s-0.448-1-1-1H6.5
	c-0.552,0-1,0.448-1,1s0.448,1,1,1H15L15,15z M2,4c1.104,0,2-0.896,2-2S3.104,0,2,0S0,0.896,0,2S0.896,4,2,4z M2,10
	c1.104,0,2-0.896,2-2S3.104,6,2,6S0,6.896,0,8S0.896,10,2,10z M2,16c1.104,0,2-0.896,2-2s-0.896-2-2-2s-2,0.896-2,2S0.896,16,2,16z"
	/>
</svg>
