<?xml version="1.0" encoding="utf-8"?>
<!-- Generator: Adobe Illustrator 16.0.0, SVG Export Plug-In . SVG Version: 6.00 Build 0)  -->
<!DOCTYPE svg PUBLIC "-//W3C//DTD SVG 1.1//EN" "http://www.w3.org/Graphics/SVG/1.1/DTD/svg11.dtd">
<svg version="1.1" id="Layer_1" xmlns="http://www.w3.org/2000/svg" xmlns:xlink="http://www.w3.org/1999/xlink" x="0px" y="0px"
	 width="16px" height="16px" viewBox="0 0 16 16" enable-background="new 0 0 16 16" xml:space="preserve">
<path fill="#919191" d="M4,7c0-0.256,0.098-0.512,0.293-0.707c0.391-0.391,1.024-0.391,1.414,0L8,8.586l2.293-2.293
	c0.391-0.391,1.023-0.391,1.414,0c0.391,0.39,0.391,1.024,0,1.414l-3,3c-0.39,0.391-1.023,0.391-1.414,0l-3-3
	C4.098,7.512,4,7.256,4,7L4,7z M15,8c0-1.87-0.729-3.627-2.051-4.95C11.627,1.727,9.869,1,8,1C6.13,1,4.373,1.728,3.05,3.05
	C1.729,4.373,1,6.13,1,8s0.729,3.628,2.05,4.949C4.373,14.271,6.13,15,8,15c1.869,0,3.627-0.729,4.949-2.051
	C14.271,11.628,15,9.87,15,8 M16,8c0,4.418-3.582,8-8,8s-8-3.582-8-8s3.582-8,8-8S16,3.582,16,8L16,8z"/>
</svg>
