<?xml version="1.0" encoding="utf-8"?>
<!-- Generator: Adobe Illustrator 16.0.0, SVG Export Plug-In . SVG Version: 6.00 Build 0)  -->
<!DOCTYPE svg PUBLIC "-//W3C//DTD SVG 1.1//EN" "http://www.w3.org/Graphics/SVG/1.1/DTD/svg11.dtd">
<svg version="1.1" id="Layer_1" xmlns="http://www.w3.org/2000/svg" xmlns:xlink="http://www.w3.org/1999/xlink" x="0px" y="0px"
	 width="16px" height="16px" viewBox="0 0 16 16" enable-background="new 0 0 16 16" xml:space="preserve">
<path opacity="0.45" fill="#5E5F5F" d="M13.939,2.939l-1.878-1.878C11.479,0.478,10.326,0,9.5,0h-7C1.675,0,1,0.674,1,1.5v13
	C1,15.326,1.675,16,2.5,16h11c0.826,0,1.5-0.674,1.5-1.5v-9C15,4.674,14.521,3.522,13.939,2.939z M10,2.118
	c0.033,0.012,0.068,0.025,0.105,0.041c0.283,0.117,0.478,0.253,0.54,0.316l1.88,1.878c0.063,0.063,0.198,0.259,0.316,0.541
	C12.855,4.93,12.87,4.966,12.881,5L10,5V2.118z M13,14H3V2h6v4h4V14z M4,8h8v1H4V8z M4,10h8v1H4V10z M4,12h8v1H4V12z"/>
</svg>
