<?xml version="1.0" encoding="utf-8"?>
<!-- Generator: Adobe Illustrator 16.0.0, SVG Export Plug-In . SVG Version: 6.00 Build 0)  -->
<!DOCTYPE svg PUBLIC "-//W3C//DTD SVG 1.1//EN" "http://www.w3.org/Graphics/SVG/1.1/DTD/svg11.dtd">
<svg version="1.1" id="Layer_1" xmlns="http://www.w3.org/2000/svg" xmlns:xlink="http://www.w3.org/1999/xlink" x="0px" y="0px"
	 width="16px" height="16px" viewBox="0 0 16 16" enable-background="new 0 0 16 16" xml:space="preserve">
<path fill="#797979" d="M5,2.047v12H2v-12H5 M5,0.047H2c-1.105,0-2,0.895-2,2v12c0,1.104,0.895,2,2,2h3c1.104,0,2-0.896,2-2v-12
	C7,0.942,6.104,0.047,5,0.047L5,0.047z M14,2.047v12h-3v-12H14 M14,0.047h-3c-1.104,0-2,0.895-2,2v12c0,1.104,0.896,2,2,2h3
	c1.104,0,2-0.896,2-2v-12C16,0.942,15.104,0.047,14,0.047L14,0.047z"/>
</svg>
