<?xml version="1.0" encoding="utf-8"?>
<!-- Generator: Adobe Illustrator 16.0.0, SVG Export Plug-In . SVG Version: 6.00 Build 0)  -->
<!DOCTYPE svg PUBLIC "-//W3C//DTD SVG 1.1//EN" "http://www.w3.org/Graphics/SVG/1.1/DTD/svg11.dtd">
<svg version="1.1" id="Layer_1" xmlns="http://www.w3.org/2000/svg" xmlns:xlink="http://www.w3.org/1999/xlink" x="0px" y="0px"
	 width="16px" height="16px" viewBox="0 0 16 16" enable-background="new 0 0 16 16" xml:space="preserve">
<path fill="#6C6C6C" d="M2.013,2.037l11.975,5.987L2.013,14.012V2.037 M2.013,0.042c-0.365,0-0.729,0.1-1.048,0.298
	c-0.59,0.363-0.948,1.006-0.948,1.698v11.975c0,0.692,0.358,1.334,0.948,1.698c0.319,0.197,0.683,0.298,1.048,0.298
	c0.305,0,0.61-0.07,0.893-0.211L14.88,9.81c0.676-0.338,1.103-1.029,1.103-1.785c0-0.755-0.427-1.447-1.103-1.785L2.905,0.252
	C2.624,0.111,2.317,0.042,2.013,0.042L2.013,0.042z"/>
</svg>
