<?xml version="1.0" encoding="utf-8"?>
<!-- Generator: Adobe Illustrator 16.0.0, SVG Export Plug-In . SVG Version: 6.00 Build 0)  -->
<!DOCTYPE svg PUBLIC "-//W3C//DTD SVG 1.1//EN" "http://www.w3.org/Graphics/SVG/1.1/DTD/svg11.dtd">
<svg version="1.1" id="Layer_1" xmlns="http://www.w3.org/2000/svg" xmlns:xlink="http://www.w3.org/1999/xlink" x="0px" y="0px"
	 width="16px" height="16px" viewBox="0 0 16 16" enable-background="new 0 0 16 16" xml:space="preserve">
<path opacity="0.4" d="M8,1c1.87,0,3.627,0.729,4.949,2.05C14.271,4.373,15,6.13,15,8c0,1.871-0.729,3.628-2.051,4.949
	C11.627,14.272,9.87,15.001,8,15.001c-1.87,0-3.627-0.729-4.95-2.052C1.729,11.628,1,9.871,1,8c0-1.87,0.729-3.627,2.05-4.95
	C4.373,1.729,6.13,1,8,1 M8,0C3.582,0,0,3.582,0,8s3.582,8,8,8c4.419,0,8-3.582,8-8S12.419,0,8,0L8,0z M9.413,8l2.294-2.293
	c0.391-0.391,0.391-1.023,0-1.414c-0.392-0.391-1.022-0.391-1.415,0L8,6.586L5.707,4.293c-0.39-0.391-1.023-0.391-1.414,0
	c-0.391,0.391-0.391,1.023,0,1.414L6.585,8l-2.292,2.292c-0.391,0.393-0.391,1.025,0,1.416C4.488,11.902,4.744,12.001,5,12.001
	s0.512-0.099,0.707-0.293L8,9.414l2.292,2.294c0.196,0.194,0.452,0.293,0.708,0.293s0.512-0.099,0.707-0.293
	c0.391-0.391,0.391-1.023,0-1.416L9.413,8z"/>
</svg>
