<?xml version="1.0" encoding="utf-8"?>
<!-- Generator: Adobe Illustrator 18.0.0, SVG Export Plug-In . SVG Version: 6.00 Build 0)  -->
<!DOCTYPE svg PUBLIC "-//W3C//DTD SVG 1.1//EN" "http://www.w3.org/Graphics/SVG/1.1/DTD/svg11.dtd">
<svg version="1.1" id="Layer_1" xmlns="http://www.w3.org/2000/svg" xmlns:xlink="http://www.w3.org/1999/xlink" x="0px" y="0px"
	 viewBox="0 0 16 16" enable-background="new 0 0 16 16" xml:space="preserve">
<path opacity="0.4" fill="#FFFFFF" enable-background="new    " d="M8,1c1.9,0,3.6,0.7,4.9,2C14.3,4.4,15,6.1,15,8
	c0,1.9-0.7,3.6-2.1,4.9C11.6,14.3,9.9,15,8,15s-3.6-0.7-4.9-2.1C1.7,11.6,1,9.9,1,8c0-1.9,0.7-3.6,2-4.9C4.4,1.7,6.1,1,8,1 M8,0
	C3.6,0,0,3.6,0,8s3.6,8,8,8c4.4,0,8-3.6,8-8S12.4,0,8,0L8,0z M9.4,8l2.3-2.3c0.4-0.4,0.4-1,0-1.4c-0.4-0.4-1-0.4-1.4,0L8,6.6
	L5.7,4.3c-0.4-0.4-1-0.4-1.4,0s-0.4,1,0,1.4L6.6,8l-2.3,2.3c-0.4,0.4-0.4,1,0,1.4C4.5,11.9,4.7,12,5,12s0.5-0.1,0.7-0.3L8,9.4
	l2.3,2.3c0.2,0.2,0.5,0.3,0.7,0.3s0.5-0.1,0.7-0.3c0.4-0.4,0.4-1,0-1.4L9.4,8z"/>
</svg>
